# xmcd
#
# Track frame offsets: 
#        150
#        22111
#        38593
#        48588
#        60586
#        73828
#        85467
#        100688
#        115018
#        125277
#        133642
#        144553
#        156066
#        169047
#        178711
#
# Disc length: 2610 seconds
#
# Revision: 4
# Processed by: cddbd v1.5.2PL0 Copyright (c) Steve Scherf et al.
# Submitted via: ExactAudioCopy v1.0b1
#
DISCID=cb0a300f
DTITLE=Jaromir Nohavica - Ikarus
DYEAR=2008
DGENRE=Ballad
TTITLE0=Já si to pamatuju
TTITLE1=Ty ptáš se mě
TTITLE2=Noe
TTITLE3=Píseň o příteli
TTITLE4=Ježíšek
TTITLE5=Co se stalo bratříčku
TTITLE6=Do dne a do roka
TTITLE7=Pro Martinu
TTITLE8=On se oběsil
TTITLE9=Ona je na mě zlá
TTITLE10=Prošel jsem hlubokým lesem
TTITLE11=Ostravian pie
TTITLE12=Ikarus
TTITLE13=Sloní hřbitovy
TTITLE14=Mám jizvu na rtu
EXTD=
EXTT0=
EXTT1=
EXTT2=
EXTT3=
EXTT4=
EXTT5=
EXTT6=
EXTT7=
EXTT8=
EXTT9=
EXTT10=
EXTT11=
EXTT12=
EXTT13=
EXTT14=
PLAYORDER=
